{
	"asset": {
		"copyright": "Mr. Snark (https://sketchfab.com/Mr-Snark)",
		"generator": "Khronos glTF Blender I/O v3.6.27",
		"version": "2.0",
		"extensions": {
			"KHR_xmp_json_ld": {
				"packet": 0
			}
		}
	},
	"extensionsUsed": [
		"KHR_materials_specular",
		"KHR_materials_ior",
		"KHR_xmp_json_ld"
	],
	"extensions": {
		"KHR_xmp_json_ld": {
			"packets": [
				{
					"@context": {
						"dc": "http://purl.org/dc/elements/1.1/",
						"rdf": "http://www.w3.org/1999/02/22-rdf-syntax-ns#"
					},
					"@id": "",
					"dc:creator": "Mr. Snark (https://sketchfab.com/Mr-Snark)",
					"dc:description": "Half-Life 2 error.mdl recreation",
					"dc:format": "model/gltf-binary",
					"dc:language": "en",
					"dc:relation": "https://sketchfab.com/Mr-Snark",
					"dc:rights": "CC-BY-4.0",
					"dc:source": "https://sketchfab.com/3d-models/half-life-2-errormdl-recreation-c62b8d197dde404cbeb3d5b63390e4f5",
					"dc:title": "Half-Life 2 error.mdl recreation",
					"dc:type": "Error Placeholder"
				}
			]
		}
	},
	"scene": 0,
	"scenes": [
		{
			"name": "Scene",
			"nodes": [0]
		}
	],
	"nodes": [
		{
			"mesh": 0,
			"name": "ErrorRecreation"
		}
	],
	"materials": [
		{
			"doubleSided": true,
			"extensions": {
				"KHR_materials_specular": {
					"specularColorFactor": [0, 0, 0]
				},
				"KHR_materials_ior": {
					"ior": 1.4500000476837158
				}
			},
			"name": "ErrorRecreationMaterial",
			"pbrMetallicRoughness": {
				"baseColorFactor": [
					0.9137254953384399, 0.11372549086809158, 0.1764705926179886,
					1
				],
				"metallicFactor": 0
			}
		}
	],
	"meshes": [
		{
			"name": "ErrorRecreationMesh",
			"primitives": [
				{
					"attributes": {
						"POSITION": 0,
						"NORMAL": 1
					},
					"indices": 2,
					"material": 0
				}
			]
		}
	],
	"accessors": [
		{
			"bufferView": 0,
			"componentType": 5126,
			"count": 1634,
			"max": [0.8515499830245972, 0.477499395608902, 0.12359955161809921],
			"min": [
				-0.8530818223953247, -0.4749999940395355, -0.12433574348688126
			],
			"type": "VEC3"
		},
		{
			"bufferView": 1,
			"componentType": 5126,
			"count": 1634,
			"type": "VEC3"
		},
		{
			"bufferView": 2,
			"componentType": 5123,
			"count": 3264,
			"type": "SCALAR"
		}
	],
	"bufferViews": [
		{
			"buffer": 0,
			"byteLength": 19608,
			"byteOffset": 0,
			"target": 34962
		},
		{
			"buffer": 0,
			"byteLength": 19608,
			"byteOffset": 19608,
			"target": 34962
		},
		{
			"buffer": 0,
			"byteLength": 6528,
			"byteOffset": 39216,
			"target": 34963
		}
	],
	"buffers": [
		{
			"byteLength": 45744,
			"uri": "data:application/octet-stream;base64,"
		}
	]
}
